<svg xmlns="http://www.w3.org/2000/svg" viewBox="0 0 128 128" width="128" height="128">
<defs><linearGradient id="g" x1="0" y1="0" x2="1" y2="1"><stop offset="0" stop-color="#C43A4E"/><stop offset="1" stop-color="#6E1526"/></linearGradient></defs><rect width="128" height="128" rx="28" fill="url(#g)"/><g  color="#F5EDE8" stroke="currentColor" stroke-width="10" stroke-linecap="round" stroke-linejoin="round" fill="none">
   <path d="M47 25 55 51a9 9 0 0 0 18 0l8-26"/>
   <path d="M64 60v24c0 8-6 12-12 12"/>
   <ellipse cx="49" cy="97" rx="12.5" ry="9" transform="rotate(-22 49 97)" fill="currentColor" stroke="none"/>
   <path d="M35 24q-7 10 0 20" stroke-width="6" opacity=".85"/>
   <path d="M22 20q-11 14 0 28" stroke-width="5" opacity=".55"/>
   <path d="M93 24q7 10 0 20" stroke-width="6" opacity=".85"/>
   <path d="M106 20q11 14 0 28" stroke-width="5" opacity=".55"/>
</g>
</svg>
